<?xml version="1.0" encoding="UTF-8" standalone="no"?>
<!-- Created with Inkscape (http://www.inkscape.org/) -->

<svg
   xmlns:dc="http://purl.org/dc/elements/1.1/"
   xmlns:cc="http://creativecommons.org/ns#"
   xmlns:rdf="http://www.w3.org/1999/02/22-rdf-syntax-ns#"
   xmlns:svg="http://www.w3.org/2000/svg"
   xmlns="http://www.w3.org/2000/svg"
   xmlns:sodipodi="http://sodipodi.sourceforge.net/DTD/sodipodi-0.dtd"
   xmlns:inkscape="http://www.inkscape.org/namespaces/inkscape"
   width="50"
   height="57"
   id="svg2"
   version="1.1"
   inkscape:version="0.48.1 "
   sodipodi:docname="GiraffeZoom.svg"
   inkscape:export-filename="C:\Users\djc\Code\shootytron\GiraffeZoom.png"
   inkscape:export-xdpi="900"
   inkscape:export-ydpi="900">
  <defs
     id="defs4" />
  <sodipodi:namedview
     id="base"
     pagecolor="#ffffff"
     bordercolor="#666666"
     borderopacity="1.0"
     inkscape:pageopacity="0.0"
     inkscape:pageshadow="2"
     inkscape:zoom="15.192982"
     inkscape:cx="21.779498"
     inkscape:cy="32.97352"
     inkscape:document-units="px"
     inkscape:current-layer="layer1"
     showgrid="true"
     fit-margin-top="0"
     fit-margin-left="0"
     fit-margin-right="0"
     fit-margin-bottom="0"
     inkscape:window-width="1342"
     inkscape:window-height="1085"
     inkscape:window-x="540"
     inkscape:window-y="19"
     inkscape:window-maximized="0">
    <inkscape:grid
       type="xygrid"
       id="grid3766"
       empspacing="5"
       visible="true"
       enabled="true"
       snapvisiblegridlinesonly="true" />
  </sodipodi:namedview>
  <metadata
     id="metadata7">
    <rdf:RDF>
      <cc:Work
         rdf:about="">
        <dc:format>image/svg+xml</dc:format>
        <dc:type
           rdf:resource="http://purl.org/dc/dcmitype/StillImage" />
        <dc:title></dc:title>
      </cc:Work>
    </rdf:RDF>
  </metadata>
  <g
     inkscape:label="Layer 1"
     inkscape:groupmode="layer"
     id="layer1"
     transform="translate(0,-995.36218)">
    <path
       style="fill:#cf932e;fill-opacity:1;stroke:none"
       d="M 10,1 10,19 3,8 2,8 l 0,1 6,13 2,3 7,0 16,-1 2,2 -1,12 0,3 0,7 -1,0 -1,-1 -2,0 0,2 6,4 3,0 0,2 2,0 0,-2 1,0 1,1 3,0 1,-1 0,-1 -1,-2 0,-6 2,-3 0,-4 -3,-3 -3,0 -4,2 0,-9 -1,-6 0,-5 1,-5 0,-7 -5,0 0,2 -4,0 -2,8 -10,0 2,-6 0,-3 -4,0 0,-4 z"
       transform="translate(0,995.36218)"
       id="rect3768"
       inkscape:connector-curvature="0"
       sodipodi:nodetypes="ccccccccccccccccccccccccccccccccccccccccccccccccc" />
  </g>
</svg>
