<?xml version="1.0" encoding="UTF-8" standalone="no"?>
<!-- Created with Inkscape (http://www.inkscape.org/) -->

<svg
   xmlns:dc="http://purl.org/dc/elements/1.1/"
   xmlns:cc="http://creativecommons.org/ns#"
   xmlns:rdf="http://www.w3.org/1999/02/22-rdf-syntax-ns#"
   xmlns:svg="http://www.w3.org/2000/svg"
   xmlns="http://www.w3.org/2000/svg"
   xmlns:sodipodi="http://sodipodi.sourceforge.net/DTD/sodipodi-0.dtd"
   xmlns:inkscape="http://www.inkscape.org/namespaces/inkscape"
   width="640px"
   height="480px"
   id="svg2985"
   version="1.1"
   inkscape:version="0.48.1 "
   sodipodi:docname="New document 2">
  <defs
     id="defs2987" />
  <sodipodi:namedview
     id="base"
     pagecolor="#ffffff"
     bordercolor="#666666"
     borderopacity="1.0"
     inkscape:pageopacity="0.0"
     inkscape:pageshadow="2"
     inkscape:zoom="0.77472527"
     inkscape:cx="165.75177"
     inkscape:cy="240"
     inkscape:current-layer="layer2"
     inkscape:document-units="px"
     showgrid="false"
     inkscape:window-width="1920"
     inkscape:window-height="1138"
     inkscape:window-x="-8"
     inkscape:window-y="-8"
     inkscape:window-maximized="1" />
  <metadata
     id="metadata2990">
    <rdf:RDF>
      <cc:Work
         rdf:about="">
        <dc:format>image/svg+xml</dc:format>
        <dc:type
           rdf:resource="http://purl.org/dc/dcmitype/StillImage" />
        <dc:title></dc:title>
      </cc:Work>
    </rdf:RDF>
  </metadata>
  <g
     inkscape:groupmode="layer"
     id="layer2"
     inkscape:label="Text"
     style="display:none">
    <text
       xml:space="preserve"
       style="font-size:128px;font-style:normal;font-variant:normal;font-weight:normal;font-stretch:normal;text-align:center;line-height:100%;letter-spacing:0px;word-spacing:0px;writing-mode:lr-tb;text-anchor:middle;fill:#ff00ff;fill-opacity:1;stroke:none;display:inline;font-family:League Gothic;-inkscape-font-specification:League Gothic"
       x="321.58429"
       y="212.95113"
       id="text2993"
       sodipodi:linespacing="100%"><tspan
         sodipodi:role="line"
         id="tspan2995"
         x="321.58429"
         y="212.95113">SHOOTYTRON</tspan><tspan
         sodipodi:role="line"
         x="321.58429"
         y="360.87164"
         id="tspan3005"
         style="font-size:160px;font-style:normal;font-variant:normal;font-weight:bold;font-stretch:normal;text-align:center;line-height:100%;writing-mode:lr-tb;text-anchor:middle;fill:#ff00ff;font-family:League Gothic;-inkscape-font-specification:League Gothic">299912</tspan></text>
  </g>
  <g
     id="layer1"
     inkscape:label="Layer 1"
     inkscape:groupmode="layer"
     style="display:inline">
    <g
       style="font-size:128px;font-style:normal;font-variant:normal;font-weight:normal;font-stretch:normal;text-align:center;line-height:100%;letter-spacing:0px;word-spacing:0px;writing-mode:lr-tb;text-anchor:middle;fill:#000000;fill-opacity:1;stroke:none;font-family:League Gothic;-inkscape-font-specification:League Gothic"
       id="text3135">
      <path
         d="m 100.80824,139.86407 c 0.11999,5.04533 1.41597,9.9946 3.88794,14.84781 2.47196,4.85332 5.39992,9.67459 8.78389,14.46381 2.75995,3.98665 5.27191,7.82127 7.5359,11.50385 2.26395,3.68265 3.46393,7.10127 3.59996,10.25587 0.0213,3.00798 -0.40536,5.47195 -1.27998,7.3919 -0.87469,1.91999 -2.32533,2.91198 -4.35195,2.97597 -2.79198,-0.17866 -4.59996,-1.8693 -5.42393,-5.07194 -0.82401,-3.2026 -1.192,-6.84522 -1.10398,-10.92786 l -13.56783,1.27999 c -0.274665,7.24525 0.850652,13.5545 3.37596,18.92775 2.52529,5.37327 8.09854,8.19456 16.71978,8.46389 7.40787,-0.20266 12.4958,-2.5813 15.2638,-7.13591 2.76793,-4.55459 4.07991,-10.06918 3.93595,-16.54378 -0.1387,-5.03458 -1.49335,-9.94117 -4.06394,-14.71981 -2.57067,-4.77857 -5.5253,-9.55717 -8.86389,-14.33582 -2.80533,-3.90656 -5.29063,-7.64517 -7.45591,-11.21585 -2.16532,-3.57056 -3.30664,-6.95718 -3.42395,-10.15987 -0.0267,-2.73323 0.31465,-4.94653 1.02399,-6.63992 0.7093,-1.69323 1.94662,-2.59455 3.71195,-2.70396 2.24528,0.17341 3.73859,1.65073 4.47994,4.43194 0.7413,2.78138 1.08263,5.82667 1.02399,9.13588 l 13.56782,-1.27998 c 0.23463,-5.65585 -0.90669,-11.17578 -3.42395,-16.55979 -2.51734,-5.38384 -7.8186,-8.1838 -15.9038,-8.39989 -6.46393,0.38942 -11.10387,2.81072 -13.91982,7.26391 -2.81597,4.45336 -4.19195,9.37062 -4.12794,14.75181 z"
         id="path3142"
         inkscape:connector-curvature="0" />
      <path
         d="m 170.27991,212.95113 13.82382,0 0,-94.07879 -13.82382,0 0,38.9115 -10.75186,0 0,-38.9115 -13.82383,0 c 0,0.3764 0,3.71972 0,10.02995 0,6.31039 0,14.09781 0,23.36226 0,9.26457 0,18.51628 0,27.75516 0,9.23894 0,16.97516 0,23.20866 0,6.23352 0,9.47444 0,9.72276 l 13.82383,0 0,-40.95948 10.75186,0 z"
         id="path3144"
         inkscape:connector-curvature="0" />
      <path
         d="m 230.42176,193.62337 0,-55.42328 c 0.11611,-0.25118 -0.10196,-2.00997 -0.65421,-5.27638 -0.55233,-3.26624 -2.13572,-6.53257 -4.75017,-9.79898 -2.61451,-3.26624 -6.95697,-5.02503 -13.02738,-5.27638 -6.07046,0.25135 -10.41292,2.01014 -13.02739,5.27638 -2.61449,3.26641 -4.19788,6.53273 -4.75016,9.79898 -0.5523,3.2664 -0.77037,5.02519 -0.65421,5.27638 l 0,55.42328 c -0.11615,0.25128 0.10192,2.01007 0.65421,5.27638 0.55228,3.26634 2.13566,6.53266 4.75016,9.79898 2.61447,3.26633 6.95693,5.02512 13.02739,5.27638 6.07041,-0.25125 10.41287,-2.01004 13.02739,-5.27637 2.61445,-3.26632 4.19783,-6.53265 4.75016,-9.79899 0.55224,-3.26631 0.77031,-5.0251 0.65421,-5.27638 z m -13.82382,-55.42328 0,55.42328 c 0.11197,0.28802 -0.048,1.44 -0.48,3.45596 -0.43202,2.01599 -1.808,3.16797 -4.12794,3.45596 -2.31999,-0.28799 -3.69598,-1.43997 -4.12795,-3.45596 -0.43202,-2.01596 -0.59201,-3.16794 -0.47999,-3.45596 l 0,-55.42328 c -0.11202,-0.28792 0.048,-1.4399 0.47999,-3.45596 0.43198,-2.01589 1.80796,-3.16788 4.12795,-3.45595 2.31994,0.28808 3.69592,1.44006 4.12794,3.45595 0.43197,2.01605 0.59197,3.16804 0.48,3.45596 z"
         id="path3146"
         inkscape:connector-curvature="0" />
      <path
         d="m 275.67176,193.62337 0,-55.42328 c 0.11611,-0.25118 -0.10196,-2.00997 -0.65421,-5.27638 -0.55233,-3.26624 -2.13572,-6.53257 -4.75017,-9.79898 -2.61451,-3.26624 -6.95697,-5.02503 -13.02738,-5.27638 -6.07046,0.25135 -10.41292,2.01014 -13.02739,5.27638 -2.61449,3.26641 -4.19788,6.53273 -4.75016,9.79898 -0.5523,3.2664 -0.77037,5.02519 -0.65421,5.27638 l 0,55.42328 c -0.11615,0.25128 0.10192,2.01007 0.65421,5.27638 0.55228,3.26634 2.13566,6.53266 4.75016,9.79898 2.61447,3.26633 6.95693,5.02512 13.02739,5.27638 6.07041,-0.25125 10.41287,-2.01004 13.02739,-5.27637 2.61445,-3.26632 4.19783,-6.53265 4.75016,-9.79899 0.55224,-3.26631 0.77031,-5.0251 0.65421,-5.27638 z m -13.82382,-55.42328 0,55.42328 c 0.11197,0.28802 -0.048,1.44 -0.48,3.45596 -0.43202,2.01599 -1.808,3.16797 -4.12794,3.45596 -2.31999,-0.28799 -3.69598,-1.43997 -4.12795,-3.45596 -0.43202,-2.01596 -0.59201,-3.16794 -0.47999,-3.45596 l 0,-55.42328 c -0.11202,-0.28792 0.048,-1.4399 0.47999,-3.45596 0.43198,-2.01589 1.80796,-3.16788 4.12795,-3.45595 2.31994,0.28808 3.69592,1.44006 4.12794,3.45595 0.43197,2.01605 0.59197,3.16804 0.48,3.45596 z"
         id="path3148"
         inkscape:connector-curvature="0" />
      <path
         d="m 293.14612,133.08015 0,79.87098 13.82382,0 0,-79.87098 13.05583,0 0,-14.20781 -39.93548,0 0,14.20781 z"
         id="path3150"
         inkscape:connector-curvature="0" />
      <path
         d="m 334.7981,118.87234 -13.56782,0 14.07982,54.0153 0,40.06349 c 0.17065,0 1.3653,0 3.58395,0 2.21862,0 4.43725,0 6.65591,0 2.21862,0 3.41327,0 3.58396,0 l 0,-40.06349 14.07982,-54.0153 -13.56783,0 -6.91191,30.07961 -0.38399,0.89599 -0.256,0 -0.384,-0.89599 z"
         id="path3152"
         inkscape:connector-curvature="0" />
      <path
         d="m 377.39612,133.08015 0,79.87098 13.82382,0 0,-79.87098 13.05583,0 0,-14.20781 -39.93548,0 0,14.20781 z"
         id="path3154"
         inkscape:connector-curvature="0" />
      <path
         d="m 448.23173,212.95113 -8.83189,-45.56742 c 2.61593,-1.87459 4.5519,-4.71722 5.80792,-8.52789 1.25595,-3.81056 1.87994,-8.09317 1.87198,-12.84783 0.0426,-8.85848 -1.83468,-15.58905 -5.63193,-20.19174 -3.79731,-4.60252 -9.77056,-6.91715 -17.91976,-6.94391 l -13.82383,0 0,94.07879 13.82383,0 0,-39.67949 3.71195,0 7.16791,39.67949 z m -14.46382,-66.43115 c -0.18669,6.46131 -1.41334,10.46659 -3.67995,12.01585 -2.26666,1.54936 -4.4533,2.19469 -6.55991,1.93597 l 0,-27.90364 c 2.10661,-0.25858 4.29325,0.38674 6.55991,1.93598 2.26661,1.54939 3.49326,5.55466 3.67995,12.01584 z"
         id="path3156"
         inkscape:connector-curvature="0" />
      <path
         d="m 491.92176,193.62337 0,-55.42328 c 0.11611,-0.25118 -0.10196,-2.00997 -0.65421,-5.27638 -0.55233,-3.26624 -2.13572,-6.53257 -4.75017,-9.79898 -2.61451,-3.26624 -6.95697,-5.02503 -13.02738,-5.27638 -6.07046,0.25135 -10.41292,2.01014 -13.02739,5.27638 -2.61449,3.26641 -4.19788,6.53273 -4.75016,9.79898 -0.5523,3.2664 -0.77037,5.02519 -0.65421,5.27638 l 0,55.42328 c -0.11615,0.25128 0.10192,2.01007 0.65421,5.27638 0.55228,3.26634 2.13566,6.53266 4.75016,9.79898 2.61447,3.26633 6.95693,5.02512 13.02739,5.27638 6.07041,-0.25125 10.41287,-2.01004 13.02739,-5.27637 2.61445,-3.26632 4.19783,-6.53265 4.75016,-9.79899 0.55224,-3.26631 0.77031,-5.0251 0.65421,-5.27638 z m -13.82382,-55.42328 0,55.42328 c 0.11197,0.28802 -0.048,1.44 -0.48,3.45596 -0.43202,2.01599 -1.808,3.16797 -4.12794,3.45596 -2.31999,-0.28799 -3.69598,-1.43997 -4.12795,-3.45596 -0.43202,-2.01596 -0.59201,-3.16794 -0.47999,-3.45596 l 0,-55.42328 c -0.11202,-0.28792 0.048,-1.4399 0.47999,-3.45596 0.43198,-2.01589 1.80796,-3.16788 4.12795,-3.45595 2.31994,0.28808 3.69592,1.44006 4.12794,3.45595 0.43197,2.01605 0.59197,3.16804 0.48,3.45596 z"
         id="path3158"
         inkscape:connector-curvature="0" />
      <path
         d="m 529.23586,212.95113 c 0.15167,0 1.21358,0 3.18574,0 1.97208,0 3.9442,0 5.91637,0 1.97207,0 3.03399,0 3.18573,0 -4e-5,-0.25088 -4e-5,-3.51228 0,-9.7842 -4e-5,-6.2719 -4e-5,-14.04907 0,-23.33154 -4e-5,-9.2824 -4e-5,-18.56483 0,-27.84732 -4e-5,-9.28237 -4e-5,-17.05954 0,-23.33154 -4e-5,-6.27183 -4e-5,-9.53322 0,-9.78419 l -12.67183,0 0,49.02337 0,4.35194 -0.76799,0 -1.15199,-4.35194 c -0.07,-0.25529 -0.77002,-2.80859 -2.09997,-7.65991 -1.33001,-4.85121 -2.86999,-10.46847 -4.61994,-16.85178 -1.75001,-6.38318 -3.28999,-12.00043 -4.61995,-16.85179 -1.33,-4.85117 -2.02998,-7.40447 -2.09996,-7.65989 -0.15172,9e-5 -1.21363,9e-5 -3.18574,0 -1.97214,9e-5 -3.94426,9e-5 -5.91637,0 -1.97213,9e-5 -3.03404,9e-5 -3.18574,0 0,0.25097 0,3.51236 0,9.78419 0,6.272 0,14.04917 0,23.33154 0,9.28249 0,18.56492 0,27.84732 0,9.28246 0,17.05963 0,23.33154 0,6.27192 0,9.53332 0,9.7842 l 12.67184,0 0,-49.02337 0,-4.35195 0.76799,0 1.15199,4.35195 z"
         id="path3160"
         inkscape:connector-curvature="0" />
      <path
         d="m 172.72651,280.55269 0,-8.15989 c -0.06,-3.88986 0.29997,-7.22982 1.07998,-10.01988 0.77997,-2.78986 2.33995,-4.24984 4.67994,-4.37994 2.47994,0.2001 4.07992,1.80008 4.79994,4.79994 0.71996,3.00005 1.03995,6.20001 0.95999,9.59988 -0.61336,9.9476 -3.26222,20.38103 -7.94657,31.30033 -4.68441,10.91941 -9.32434,20.23879 -13.91982,27.95816 -4.5955,7.71943 -7.06658,11.75295 -7.41324,12.10059 l 0,17.11978 46.8794,0 0,-17.11978 -27.35965,0 c 3.10413,-5.1851 6.74457,-11.89908 10.92134,-20.14197 4.1767,-8.24281 7.86455,-16.98343 11.06356,-26.22188 3.19892,-9.23833 4.88384,-17.94339 5.05475,-26.11522 0.13995,-8.2898 -1.50002,-15.1897 -4.91993,-20.69974 -3.42,-5.50981 -9.45992,-8.36977 -18.11977,-8.57988 -9.2199,0.27678 -15.41982,3.3634 -18.59976,9.25988 -3.17997,5.89669 -4.65995,12.94326 -4.43994,21.13973 l 0,8.15989 z"
         style="font-size:160px;font-weight:bold;line-height:100%;font-family:League Gothic;-inkscape-font-specification:League Gothic"
         id="path3162"
         inkscape:connector-curvature="0" />
      <path
         d="m 216.68923,290.31256 c -0.0919,2.3714 0.25184,5.48642 1.0311,9.34507 0.77924,3.85877 2.54514,7.35304 5.29771,10.48282 2.75254,3.12989 7.04285,4.78715 12.87094,4.9718 1.50996,-0.01 2.96994,-0.26995 4.37995,-0.77999 1.40995,-0.50995 2.82993,-1.20994 4.25994,-2.09998 l 0,22.07972 c 0.05,4.4533 -0.29003,7.70659 -1.01998,9.75987 -0.73003,2.05332 -2.15001,3.06664 -4.25995,3.03996 -2.38999,0.15002 -3.88997,-1.22996 -4.49994,-4.13994 -0.61001,-2.90995 -0.87001,-8.24987 -0.77999,-16.0198 l -17.27978,0 0,7.35991 c -0.12148,2.96295 0.22814,6.60142 1.04887,10.91541 0.82073,4.31403 2.84144,8.16583 6.06215,11.55541 3.22068,3.38958 8.37024,5.17919 15.44869,5.36882 7.07839,-0.18963 12.22795,-1.97924 15.44869,-5.36882 3.22065,-3.38958 5.24136,-7.24138 6.06214,-11.55541 0.82068,-4.314 1.17031,-7.95247 1.04888,-10.91541 l 0,-66.87914 c 0.11255,-2.07692 -0.27263,-5.10502 -1.15554,-9.08433 -0.883,-3.9791 -2.93927,-7.6472 -6.16881,-11.00431 -3.22963,-3.35687 -8.30808,-5.14055 -15.23536,-5.35103 -6.92733,0.21048 -12.00578,1.99416 -15.23536,5.35104 -3.22959,3.3571 -5.28586,7.0252 -6.16881,11.0043 -0.88296,3.97931 -1.26814,7.00741 -1.15554,9.08433 z m 27.83964,6.55992 c -0.06,0.90005 -0.50003,1.90004 -1.31998,2.99996 -0.82002,1.10005 -2.14,1.70004 -3.95995,1.79998 -1.83,-0.12994 -3.16998,-0.82993 -4.01995,-2.09998 -0.85001,-1.26992 -1.27,-2.32991 -1.25998,-3.17995 l 0,-34.07957 c -0.01,-0.84988 0.40997,-1.90987 1.25998,-3.17996 0.84997,-1.26988 2.18995,-1.96987 4.01995,-2.09997 1.96995,0.13011 3.34993,0.8301 4.13995,2.09998 0.78996,1.27008 1.16995,2.33007 1.13998,3.17995 z"
         style="font-size:160px;font-weight:bold;line-height:100%;font-family:League Gothic;-inkscape-font-specification:League Gothic"
         id="path3164"
         inkscape:connector-curvature="0" />
      <path
         d="m 275.75173,290.31256 c -0.0919,2.3714 0.25184,5.48642 1.0311,9.34507 0.77924,3.85877 2.54514,7.35304 5.29771,10.48282 2.75254,3.12989 7.04285,4.78715 12.87094,4.9718 1.50996,-0.01 2.96994,-0.26995 4.37995,-0.77999 1.40995,-0.50995 2.82993,-1.20994 4.25994,-2.09998 l 0,22.07972 c 0.05,4.4533 -0.29003,7.70659 -1.01998,9.75987 -0.73003,2.05332 -2.15001,3.06664 -4.25995,3.03996 -2.38999,0.15002 -3.88997,-1.22996 -4.49994,-4.13994 -0.61001,-2.90995 -0.87001,-8.24987 -0.77999,-16.0198 l -17.27978,0 0,7.35991 c -0.12148,2.96295 0.22814,6.60142 1.04887,10.91541 0.82073,4.31403 2.84144,8.16583 6.06215,11.55541 3.22068,3.38958 8.37024,5.17919 15.44869,5.36882 7.07839,-0.18963 12.22795,-1.97924 15.44869,-5.36882 3.22065,-3.38958 5.24136,-7.24138 6.06214,-11.55541 0.82068,-4.314 1.17031,-7.95247 1.04888,-10.91541 l 0,-66.87914 c 0.11255,-2.07692 -0.27263,-5.10502 -1.15554,-9.08433 -0.883,-3.9791 -2.93927,-7.6472 -6.16881,-11.00431 -3.22963,-3.35687 -8.30808,-5.14055 -15.23536,-5.35103 -6.92733,0.21048 -12.00578,1.99416 -15.23536,5.35104 -3.22959,3.3571 -5.28586,7.0252 -6.16881,11.0043 -0.88296,3.97931 -1.26814,7.00741 -1.15554,9.08433 z m 27.83964,6.55992 c -0.06,0.90005 -0.50003,1.90004 -1.31998,2.99996 -0.82002,1.10005 -2.14,1.70004 -3.95995,1.79998 -1.83,-0.12994 -3.16998,-0.82993 -4.01995,-2.09998 -0.85001,-1.26992 -1.27,-2.32991 -1.25998,-3.17995 l 0,-34.07957 c -0.01,-0.84988 0.40997,-1.90987 1.25998,-3.17996 0.84997,-1.26988 2.18995,-1.96987 4.01995,-2.09997 1.96995,0.13011 3.34993,0.8301 4.13995,2.09998 0.78996,1.27008 1.16995,2.33007 1.13998,3.17995 z"
         style="font-size:160px;font-weight:bold;line-height:100%;font-family:League Gothic;-inkscape-font-specification:League Gothic"
         id="path3166"
         inkscape:connector-curvature="0" />
      <path
         d="m 334.81423,290.31256 c -0.0919,2.3714 0.25184,5.48642 1.0311,9.34507 0.77924,3.85877 2.54514,7.35304 5.29771,10.48282 2.75254,3.12989 7.04285,4.78715 12.87094,4.9718 1.50996,-0.01 2.96994,-0.26995 4.37995,-0.77999 1.40995,-0.50995 2.82993,-1.20994 4.25994,-2.09998 l 0,22.07972 c 0.05,4.4533 -0.29003,7.70659 -1.01998,9.75987 -0.73003,2.05332 -2.15001,3.06664 -4.25995,3.03996 -2.38999,0.15002 -3.88997,-1.22996 -4.49994,-4.13994 -0.61001,-2.90995 -0.87001,-8.24987 -0.77999,-16.0198 l -17.27978,0 0,7.35991 c -0.12148,2.96295 0.22814,6.60142 1.04887,10.91541 0.82073,4.31403 2.84144,8.16583 6.06215,11.55541 3.22068,3.38958 8.37024,5.17919 15.44869,5.36882 7.07839,-0.18963 12.22795,-1.97924 15.44869,-5.36882 3.22065,-3.38958 5.24136,-7.24138 6.06214,-11.55541 0.82068,-4.314 1.17031,-7.95247 1.04888,-10.91541 l 0,-66.87914 c 0.11255,-2.07692 -0.27263,-5.10502 -1.15554,-9.08433 -0.883,-3.9791 -2.93927,-7.6472 -6.16881,-11.00431 -3.22963,-3.35687 -8.30808,-5.14055 -15.23536,-5.35103 -6.92733,0.21048 -12.00578,1.99416 -15.23536,5.35104 -3.22959,3.3571 -5.28586,7.0252 -6.16881,11.0043 -0.88296,3.97931 -1.26814,7.00741 -1.15554,9.08433 z m 27.83964,6.55992 c -0.06,0.90005 -0.50003,1.90004 -1.31998,2.99996 -0.82002,1.10005 -2.14,1.70004 -3.95995,1.79998 -1.83,-0.12994 -3.16998,-0.82993 -4.01995,-2.09998 -0.85001,-1.26992 -1.27,-2.32991 -1.25998,-3.17995 l 0,-34.07957 c -0.01,-0.84988 0.40997,-1.90987 1.25998,-3.17996 0.84997,-1.26988 2.18995,-1.96987 4.01995,-2.09997 1.96995,0.13011 3.34993,0.8301 4.13995,2.09998 0.78996,1.27008 1.16995,2.33007 1.13998,3.17995 z"
         style="font-size:160px;font-weight:bold;line-height:100%;font-family:League Gothic;-inkscape-font-specification:League Gothic"
         id="path3168"
         inkscape:connector-curvature="0" />
      <path
         d="m 402.83662,268.71284 0,92.15882 17.27977,0 0,-117.59849 -10.39986,0 c 0.13331,0.42011 -1.13334,2.46008 -3.79995,6.11992 -2.66665,3.66006 -7.53325,6.42002 -14.59982,8.27989 l 0,11.03986 z"
         style="font-size:160px;font-weight:bold;line-height:100%;font-family:League Gothic;-inkscape-font-specification:League Gothic"
         id="path3170"
         inkscape:connector-curvature="0" />
      <path
         d="m 453.03901,280.55269 0,-8.15989 c -0.06,-3.88986 0.29997,-7.22982 1.07998,-10.01988 0.77997,-2.78986 2.33995,-4.24984 4.67994,-4.37994 2.47994,0.2001 4.07992,1.80008 4.79994,4.79994 0.71996,3.00005 1.03995,6.20001 0.95999,9.59988 -0.61336,9.9476 -3.26222,20.38103 -7.94657,31.30033 -4.68441,10.91941 -9.32434,20.23879 -13.91982,27.95816 -4.5955,7.71943 -7.06658,11.75295 -7.41324,12.10059 l 0,17.11978 46.8794,0 0,-17.11978 -27.35965,0 c 3.10413,-5.1851 6.74457,-11.89908 10.92134,-20.14197 4.1767,-8.24281 7.86455,-16.98343 11.06356,-26.22188 3.19892,-9.23833 4.88384,-17.94339 5.05475,-26.11522 0.13995,-8.2898 -1.50002,-15.1897 -4.91993,-20.69974 -3.42,-5.50981 -9.45992,-8.36977 -18.11977,-8.57988 -9.2199,0.27678 -15.41982,3.3634 -18.59976,9.25988 -3.17997,5.89669 -4.65995,12.94326 -4.43994,21.13973 l 0,8.15989 z"
         style="font-size:160px;font-weight:bold;line-height:100%;font-family:League Gothic;-inkscape-font-specification:League Gothic"
         id="path3172"
         inkscape:connector-curvature="0" />
    </g>
  </g>
</svg>
